<?xml version="1.0" encoding="UTF-8" standalone="no"?>
<svg
   xmlns:dc="http://purl.org/dc/elements/1.1/"
   xmlns:cc="http://creativecommons.org/ns#"
   xmlns:rdf="http://www.w3.org/1999/02/22-rdf-syntax-ns#"
   xmlns:svg="http://www.w3.org/2000/svg"
   xmlns="http://www.w3.org/2000/svg"
   xmlns:sodipodi="http://sodipodi.sourceforge.net/DTD/sodipodi-0.dtd"
   xmlns:inkscape="http://www.inkscape.org/namespaces/inkscape"
   height="512pt"
   viewBox="-69 0 512 512.00105"
   width="512pt"
   version="1.1"
   id="svg28"
   sodipodi:docname="bin-inactive.svg"
   inkscape:version="0.92.3 (unknown)">
  <metadata
     id="metadata34">
    <rdf:RDF>
      <cc:Work
         rdf:about="">
        <dc:format>image/svg+xml</dc:format>
        <dc:type
           rdf:resource="http://purl.org/dc/dcmitype/StillImage" />
        <dc:title></dc:title>
      </cc:Work>
    </rdf:RDF>
  </metadata>
  <defs
     id="defs32" />
  <sodipodi:namedview
     pagecolor="#ffffff"
     bordercolor="#666666"
     borderopacity="1"
     objecttolerance="10"
     gridtolerance="10"
     guidetolerance="10"
     inkscape:pageopacity="0"
     inkscape:pageshadow="2"
     inkscape:window-width="1853"
     inkscape:window-height="1016"
     id="namedview30"
     showgrid="false"
     inkscape:zoom="0.69140625"
     inkscape:cx="228.51977"
     inkscape:cy="341.33333"
     inkscape:window-x="67"
     inkscape:window-y="27"
     inkscape:window-maximized="1"
     inkscape:current-layer="svg28" />
  <g
     id="g4591"
     transform="translate(45.559414,-64.000129)">
    <path
       style="fill:#6c5353"
       id="path12"
       d="m 257.03906,190.39453 v 289.22266 c 0,17.88672 -14.5,32.38281 -32.38281,32.38281 H 50.929688 c -17.875,0 -32.375,-14.49609 -32.375,-32.38281 V 190.39453 Z m 0,0"
       inkscape:connector-curvature="0" />
    <path
       style="fill:#916f6f"
       id="path14"
       d="m 257.03906,190.39453 v 289.22266 c 0,17.88672 -14.5,32.38281 -32.38281,32.38281 H 101.13672 C 83.261719,512 68.761719,497.50391 68.761719,479.61719 V 190.39453 Z m 0,0"
       inkscape:connector-curvature="0" />
    <path
       style="fill:#6c5353;fill-opacity:0.85087717"
       id="path16"
       d="m 208.25391,154.40234 v 35.99219 H 67.328125 v -35.99219 c 0,-12.03906 9.769531,-21.80468 21.820313,-21.80468 h 97.296872 c 12.05078,0 21.8086,9.76562 21.8086,21.80468 z m 0,0"
       inkscape:connector-curvature="0" />
    <path
       style="fill:#ac9393"
       id="path18"
       d="m 208.25391,154.40234 v 35.99219 h -93.46875 v -35.99219 c 0,-12.03906 9.75781,-21.80468 21.80859,-21.80468 h 49.85156 c 12.05078,0 21.8086,9.76562 21.8086,21.80468 z m 0,0"
       inkscape:connector-curvature="0" />
    <path
       id="path20"
       d="m 275.59375,184.60937 v 11.57032 c 0,9.89453 -8.03516,17.92578 -17.9375,17.92578 H 17.929688 C 8.023438,214.10547 0,206.07422 0,196.17969 v -11.57032 c 0,-9.90234 8.023438,-17.92578 17.929688,-17.92578 H 257.65625 c 9.90234,0 17.9375,8.02344 17.9375,17.92578 z m 0,0"
       inkscape:connector-curvature="0"
       style="fill:#cccccc" />
    <path
       id="path22"
       d="m 275.59375,184.60937 v 11.57032 c 0,9.89453 -8.03516,17.92578 -17.9375,17.92578 H 85.269531 c -9.90625,0 -17.941406,-8.03125 -17.941406,-17.92578 v -11.57032 c 0,-9.90234 8.035156,-17.92578 17.941406,-17.92578 H 257.65625 c 9.90234,0 17.9375,8.02344 17.9375,17.92578 z m 0,0"
       inkscape:connector-curvature="0"
       style="fill:#e6e6e6" />
    <path
       id="path24"
       d="m 93.078125,379.16016 c -6.195313,-17.2461 -1.832031,-36.75782 11.117185,-49.70704 14.82032,-14.82031 37.06641,-17.76953 54.86328,-8.88281 l -12.22265,2.38281 c -4.25391,0.82813 -7.03125,4.94532 -6.20313,9.19922 0.73047,3.7461 4.01563,6.34766 7.69141,6.34766 0.5,0 1.0039,-0.0469 1.51172,-0.14844 l 29.58593,-5.76562 c 4.25391,-0.82813 7.02735,-4.94922 6.19922,-9.19922 l -5.76562,-29.58985 c -0.82813,-4.25 -4.94922,-7.02734 -9.20313,-6.19921 -4.25,0.83203 -7.02734,4.94921 -6.19922,9.20312 l 1.92969,9.89063 c -23.72265,-12.00782 -53.48437,-8.12891 -73.281248,11.66796 -17.222656,17.22266 -23.03125,43.17188 -14.789062,66.10547 1.152344,3.19922 4.167969,5.19532 7.382812,5.19532 0.882813,0 1.777344,-0.15235 2.652344,-0.46485 4.078125,-1.46484 6.195313,-5.95703 4.730469,-10.03515 z m 0,0"
       inkscape:connector-curvature="0"
       style="fill:#ffffff" />
    <path
       id="path26"
       d="m 197.58203,342.5 c -1.41016,-4.09766 -5.86719,-6.28125 -9.96875,-4.875 -4.09766,1.40625 -6.28125,5.86719 -4.875,9.96484 5.94531,17.32422 1.59766,36.1211 -11.34375,49.0625 -14.82031,14.81641 -37.06641,17.76953 -54.85937,8.88282 l 12.22265,-2.38282 c 4.25,-0.82812 7.02735,-4.94531 6.19922,-9.19922 -0.82812,-4.2539 -4.94531,-7.03125 -9.20312,-6.19921 l -29.585941,5.76562 c -2.042969,0.39844 -3.839844,1.58984 -5.003907,3.31641 C 90,398.5625 89.574219,400.67578 89.96875,402.71875 l 5.765625,29.58594 c 0.730469,3.74609 4.015625,6.34765 7.691405,6.34765 0.5,0 1.00391,-0.0469 1.51172,-0.14843 4.25,-0.82813 7.02734,-4.94532 6.19922,-9.19922 l -1.92969,-9.89453 c 8.95703,4.53515 18.76953,6.8164 28.58594,6.8164 16.1875,0 32.375,-6.16015 44.69531,-18.48047 17.21094,-17.21093 22.99609,-42.21093 15.09375,-65.24609 z m 0,0"
       inkscape:connector-curvature="0"
       style="fill:#ffffff" />
  </g>
</svg>
