<?xml version="1.0" encoding="UTF-8" standalone="no"?>
<svg
   xmlns:dc="http://purl.org/dc/elements/1.1/"
   xmlns:cc="http://creativecommons.org/ns#"
   xmlns:rdf="http://www.w3.org/1999/02/22-rdf-syntax-ns#"
   xmlns:svg="http://www.w3.org/2000/svg"
   xmlns="http://www.w3.org/2000/svg"
   xmlns:sodipodi="http://sodipodi.sourceforge.net/DTD/sodipodi-0.dtd"
   xmlns:inkscape="http://www.inkscape.org/namespaces/inkscape"
   height="512pt"
   viewBox="-69 0 512 512.00105"
   width="512pt"
   version="1.1"
   id="svg28"
   sodipodi:docname="bin-empty.svg"
   inkscape:version="0.92.3 (unknown)">
  <metadata
     id="metadata34">
    <rdf:RDF>
      <cc:Work
         rdf:about="">
        <dc:format>image/svg+xml</dc:format>
        <dc:type
           rdf:resource="http://purl.org/dc/dcmitype/StillImage" />
      </cc:Work>
    </rdf:RDF>
  </metadata>
  <defs
     id="defs32" />
  <sodipodi:namedview
     pagecolor="#ffffff"
     bordercolor="#666666"
     borderopacity="1"
     objecttolerance="10"
     gridtolerance="10"
     guidetolerance="10"
     inkscape:pageopacity="0"
     inkscape:pageshadow="2"
     inkscape:window-width="1853"
     inkscape:window-height="1016"
     id="namedview30"
     showgrid="false"
     inkscape:zoom="0.69140625"
     inkscape:cx="341.33333"
     inkscape:cy="341.33333"
     inkscape:window-x="67"
     inkscape:window-y="27"
     inkscape:window-maximized="1"
     inkscape:current-layer="svg28" />
  <g
     fill="#4c5275"
     id="g10"
     style="fill:#000958;fill-opacity:1">
    <path
       d="m366.871094 157.078125c-4.332032 0-7.84375-3.511719-7.84375-7.84375 0-73.636719-59.910156-133.542969-133.542969-133.542969-4.335937 0-7.847656-3.515625-7.847656-7.847656s3.511719-7.84375 7.847656-7.84375c82.285156 0 149.230469 66.945312 149.230469 149.234375 0 4.332031-3.511719 7.84375-7.84375 7.84375zm0 0"
       id="path2"
       style="fill:#000958;fill-opacity:1" />
    <path
       d="m330.773438 157.078125c-4.332032 0-7.84375-3.511719-7.84375-7.84375 0-53.734375-43.714844-97.449219-97.445313-97.449219-4.335937 0-7.847656-3.511718-7.847656-7.84375 0-4.332031 3.511719-7.84375 7.847656-7.84375 62.382813 0 113.136719 50.75 113.136719 113.136719 0 4.332031-3.515625 7.84375-7.847656 7.84375zm0 0"
       id="path4"
       style="fill:#000958;fill-opacity:1" />
    <path
       d="m294.675781 157.078125c-4.332031 0-7.84375-3.511719-7.84375-7.84375 0-33.828125-27.523437-61.351563-61.347656-61.351563-4.335937 0-7.847656-3.511718-7.847656-7.84375 0-4.332031 3.511719-7.84375 7.847656-7.84375 42.476563 0 77.039063 34.558594 77.039063 77.039063 0 4.332031-3.515626 7.84375-7.847657 7.84375zm0 0"
       id="path6"
       style="fill:#000958;fill-opacity:1" />
    <path
       d="m258.578125 157.078125c-4.332031 0-7.84375-3.511719-7.84375-7.84375 0-13.925781-11.328125-25.253906-25.25-25.253906-4.335937 0-7.847656-3.511719-7.847656-7.84375s3.511719-7.84375 7.847656-7.84375c22.574219 0 40.941406 18.363281 40.941406 40.941406 0 4.332031-3.515625 7.84375-7.847656 7.84375zm0 0"
       id="path8"
       style="fill:#000958;fill-opacity:1" />
  </g>
  <path
     d="m257.039062 190.394531v289.222657c0 17.886718-14.5 32.382812-32.382812 32.382812h-173.726562c-17.875 0-32.375-14.496094-32.375-32.382812v-289.222657zm0 0"
     fill="#46b746"
     id="path12"
     style="fill:#35bf46;fill-opacity:1" />
  <path
     d="m257.039062 190.394531v289.222657c0 17.886718-14.5 32.382812-32.382812 32.382812h-123.519531c-17.875 0-32.375-14.496094-32.375-32.382812v-289.222657zm0 0"
     fill="#5bce5b"
     id="path14"
     style="fill:#00d907;fill-opacity:1" />
  <path
     d="m208.253906 154.402344v35.992187h-140.925781v-35.992187c0-12.039063 9.769531-21.804688 21.820313-21.804688h97.296874c12.050782 0 21.808594 9.765625 21.808594 21.804688zm0 0"
     fill="#46b746"
     id="path16"
     style="fill:#35bf46;fill-opacity:1" />
  <path
     d="m208.253906 154.402344v35.992187h-93.46875v-35.992187c0-12.039063 9.757813-21.804688 21.808594-21.804688h49.851562c12.050782 0 21.808594 9.765625 21.808594 21.804688zm0 0"
     fill="#5bce5b"
     id="path18"
     style="fill:#00d907;fill-opacity:1" />
  <path
     d="m275.59375 184.609375v11.570313c0 9.894531-8.035156 17.925781-17.9375 17.925781h-239.726562c-9.90625 0-17.929688-8.03125-17.929688-17.925781v-11.570313c0-9.902344 8.023438-17.925781 17.929688-17.925781h239.726562c9.902344 0 17.9375 8.023437 17.9375 17.925781zm0 0"
     fill="#ccc"
     id="path20" />
  <path
     d="m275.59375 184.609375v11.570313c0 9.894531-8.035156 17.925781-17.9375 17.925781h-172.386719c-9.90625 0-17.941406-8.03125-17.941406-17.925781v-11.570313c0-9.902344 8.035156-17.925781 17.941406-17.925781h172.386719c9.902344 0 17.9375 8.023437 17.9375 17.925781zm0 0"
     fill="#e6e6e6"
     id="path22" />
  <path
     d="m93.078125 379.160156c-6.195313-17.246094-1.832031-36.757812 11.117187-49.707031 14.820313-14.820313 37.066407-17.769531 54.863282-8.882813l-12.222656 2.382813c-4.253907.828125-7.03125 4.945313-6.203126 9.199219.730469 3.746094 4.015626 6.347656 7.691407 6.347656.5 0 1.003906-.046875 1.511719-.148438l29.585937-5.765624c4.253906-.828126 7.027344-4.949219 6.199219-9.199219l-5.765625-29.589844c-.828125-4.25-4.949219-7.027344-9.203125-6.199219-4.25.832032-7.027344 4.949219-6.199219 9.203125l1.929687 9.890625c-23.722656-12.007812-53.484374-8.128906-73.28125 11.667969-17.222656 17.222656-23.03125 43.171875-14.789062 66.105469 1.152344 3.199218 4.167969 5.195312 7.382812 5.195312.882813 0 1.777344-.152344 2.652344-.464844 4.078125-1.464843 6.195313-5.957031 4.730469-10.035156zm0 0"
     fill="#fff"
     id="path24" />
  <path
     d="m197.582031 342.5c-1.410156-4.097656-5.867187-6.28125-9.96875-4.875-4.097656 1.40625-6.28125 5.867188-4.875 9.964844 5.945313 17.324218 1.597657 36.121094-11.34375 49.0625-14.820312 14.816406-37.066406 17.769531-54.859375 8.882812l12.222656-2.382812c4.25-.828125 7.027344-4.945313 6.199219-9.199219s-4.945312-7.03125-9.203125-6.199219l-29.585937 5.765625c-2.042969.398438-3.839844 1.589844-5.003907 3.316407-1.164062 1.726562-1.589843 3.839843-1.195312 5.882812l5.765625 29.585938c.730469 3.746093 4.015625 6.347656 7.691406 6.347656.5 0 1.003907-.046875 1.511719-.148438 4.25-.828125 7.027344-4.945312 6.199219-9.199218l-1.929688-9.894532c8.957031 4.535156 18.769531 6.816406 28.585938 6.816406 16.1875 0 32.375-6.160156 44.695312-18.480468 17.210938-17.210938 22.996094-42.210938 15.09375-65.246094zm0 0"
     fill="#fff"
     id="path26" />
</svg>
