<?xml version="1.0" encoding="UTF-8" standalone="no"?>
<!-- Generator: Adobe Illustrator 19.0.0, SVG Export Plug-In . SVG Version: 6.00 Build 0)  -->

<svg
   xmlns:dc="http://purl.org/dc/elements/1.1/"
   xmlns:cc="http://creativecommons.org/ns#"
   xmlns:rdf="http://www.w3.org/1999/02/22-rdf-syntax-ns#"
   xmlns:svg="http://www.w3.org/2000/svg"
   xmlns="http://www.w3.org/2000/svg"
   xmlns:sodipodi="http://sodipodi.sourceforge.net/DTD/sodipodi-0.dtd"
   xmlns:inkscape="http://www.inkscape.org/namespaces/inkscape"
   version="1.1"
   id="Capa_1"
   x="0px"
   y="0px"
   viewBox="0 0 530.79389 348.6825"
   xml:space="preserve"
   sodipodi:docname="motorcycle.svg"
   inkscape:version="0.92.3 (d244b95, 2018-08-02)"
   width="530.79388"
   height="348.6825"><metadata
   id="metadata95"><rdf:RDF><cc:Work
       rdf:about=""><dc:format>image/svg+xml</dc:format><dc:type
         rdf:resource="http://purl.org/dc/dcmitype/StillImage" /><dc:title></dc:title></cc:Work></rdf:RDF></metadata><defs
   id="defs93" /><sodipodi:namedview
   pagecolor="#ffffff"
   bordercolor="#666666"
   borderopacity="1"
   objecttolerance="10"
   gridtolerance="10"
   guidetolerance="10"
   inkscape:pageopacity="0"
   inkscape:pageshadow="2"
   inkscape:window-width="1853"
   inkscape:window-height="1025"
   id="namedview91"
   showgrid="false"
   inkscape:zoom="0.46097712"
   inkscape:cx="253.68192"
   inkscape:cy="157.44029"
   inkscape:window-x="67"
   inkscape:window-y="27"
   inkscape:window-maximized="1"
   inkscape:current-layer="Capa_1"
   fit-margin-top="0"
   fit-margin-left="0"
   fit-margin-right="0"
   fit-margin-bottom="0" />
<g
   id="g3829"
   transform="rotate(38.510151,348.80009,217.30989)"><g
     id="g58">
	<g
   id="g20">
		<path
   id="path2"
   d="m 170.707,419.34 c -0.292,0.001 -0.584,-0.028 -0.871,-0.086 l -41.198,-8.233 c -1.551,-0.303 -2.821,-1.413 -3.331,-2.908 -0.509,-1.496 -0.18,-3.15 0.864,-4.336 1.044,-1.187 2.642,-1.724 4.191,-1.41 l 41.198,8.233 c 2.224,0.443 3.751,2.5 3.531,4.757 -0.22,2.256 -2.116,3.979 -4.384,3.983 z"
   style="fill:#7f8c8d"
   inkscape:connector-curvature="0" />
		<path
   id="path4"
   d="m 148.5,466.142 c -1.589,-0.002 -3.054,-0.857 -3.837,-2.239 -0.783,-1.382 -0.763,-3.079 0.052,-4.442 l 26.069,-43.504 c 0.807,-1.359 2.279,-2.182 3.859,-2.158 1.58,0.024 3.027,0.89 3.793,2.272 0.766,1.382 0.735,3.068 -0.083,4.421 l -26.069,43.504 c -0.794,1.333 -2.232,2.149 -3.784,2.146 z"
   style="fill:#7f8c8d"
   inkscape:connector-curvature="0" />
		<path
   id="path6"
   d="m 209.414,466.254 c -1.171,10e-4 -2.294,-0.464 -3.121,-1.293 l -34.845,-34.845 c -1.694,-1.728 -1.68,-4.499 0.031,-6.21 1.711,-1.711 4.481,-1.725 6.21,-0.031 l 34.845,34.845 c 1.262,1.262 1.64,3.161 0.957,4.81 -0.683,1.649 -2.292,2.724 -4.077,2.724 z"
   style="fill:#7f8c8d"
   inkscape:connector-curvature="0" />
		<path
   id="path8"
   d="m 186.112,424.702 c -2.412,-10e-4 -4.377,-1.938 -4.413,-4.35 -0.035,-2.412 1.872,-4.406 4.283,-4.477 l 42.44,-1.228 c 2.426,-0.042 4.443,1.86 4.543,4.284 0.068,2.436 -1.848,4.469 -4.285,4.543 l -42.44,1.228 z"
   style="fill:#7f8c8d"
   inkscape:connector-curvature="0" />
		<path
   id="path10"
   d="m 457.276,208.483 c -1.674,0.002 -3.204,-0.945 -3.948,-2.444 l -17.681,-35.466 c -1.084,-2.18 -0.198,-4.826 1.981,-5.913 2.179,-1.087 4.826,-0.204 5.916,1.974 l 17.681,35.466 c 0.524,1.047 0.609,2.26 0.237,3.371 -0.372,1.111 -1.171,2.027 -2.219,2.548 -0.611,0.306 -1.284,0.465 -1.967,0.464 z"
   style="fill:#7f8c8d"
   inkscape:connector-curvature="0" />
		<path
   id="path12"
   d="m 450.112,164.323 c -2.165,0.002 -4.012,-1.568 -4.359,-3.705 -0.347,-2.137 0.908,-4.211 2.962,-4.894 l 35.405,-11.81 c 1.497,-0.505 3.15,-0.172 4.334,0.875 1.184,1.047 1.717,2.646 1.399,4.194 -0.318,1.548 -1.439,2.807 -2.94,3.302 l -35.405,11.81 c -0.449,0.151 -0.921,0.228 -1.396,0.228 z"
   style="fill:#7f8c8d"
   inkscape:connector-curvature="0" />
		<path
   id="path14"
   d="m 446.207,149.521 v 0 c -2.438,0 -4.414,-1.976 -4.414,-4.414 l 0.009,-39.035 c -0.001,-1.171 0.464,-2.294 1.292,-3.122 0.828,-0.828 1.951,-1.293 3.122,-1.292 v 0 c 2.438,0 4.414,1.976 4.414,4.414 l -0.009,39.035 c 0.001,1.171 -0.464,2.294 -1.292,3.122 -0.828,0.828 -1.951,1.293 -3.122,1.292 z"
   style="fill:#7f8c8d"
   inkscape:connector-curvature="0" />
		<path
   id="path16"
   d="m 420.103,151.03 c -1.552,0.003 -2.99,-0.813 -3.784,-2.147 l -18.526,-30.94 c -0.817,-1.352 -0.849,-3.039 -0.083,-4.421 0.766,-1.382 2.213,-2.249 3.793,-2.272 1.58,-0.023 3.052,0.8 3.859,2.158 l 18.526,30.94 c 0.819,1.363 0.84,3.061 0.057,4.445 -0.784,1.384 -2.252,2.238 -3.842,2.237 z"
   style="fill:#7f8c8d"
   inkscape:connector-curvature="0" />
		<path
   id="path18"
   d="m 403.414,204.284 c -1.785,0 -3.394,-1.076 -4.077,-2.725 -0.683,-1.649 -0.306,-3.547 0.957,-4.81 l 29.569,-29.565 c 1.111,-1.134 2.745,-1.583 4.28,-1.178 1.535,0.406 2.733,1.604 3.139,3.139 0.406,1.535 -0.044,3.169 -1.178,4.28 l -29.569,29.565 c -0.827,0.83 -1.95,1.296 -3.121,1.294 z"
   style="fill:#7f8c8d"
   inkscape:connector-curvature="0" />
	</g>
	<path
   id="path22"
   d="m 411.043,143.966 c 1.148,-2 2.565,-3.834 4.211,-5.449 10.258,-10.251 26.884,-10.246 37.136,0.011 10.252,10.257 10.249,26.883 -0.007,37.136 -10.256,10.253 -26.881,10.252 -37.136,-0.002 -1.646,-1.614 -3.062,-3.447 -4.209,-5.447"
   style="fill:#b19046"
   inkscape:connector-curvature="0" />
	<path
   id="path24"
   d="m 488.96,101.954 c -30.763,-30.812 -80.68,-30.852 -111.492,-0.088 -30.812,30.763 -30.852,80.68 -0.088,111.492 30.764,30.812 80.68,30.852 111.492,0.088 30.744,-30.791 30.784,-80.652 0.088,-111.492 z m -18.008,92.248 c -20.509,20.48 -53.73,20.48 -74.24,0 -6.675,-6.564 -11.41,-14.842 -13.683,-23.923 v -26.394 c 2.314,-9.065 7.042,-17.332 13.682,-23.923 20.506,-20.472 53.721,-20.459 74.21,0.03 20.489,20.489 20.502,53.704 0.031,74.21 z"
   style="fill:#35495e"
   inkscape:connector-curvature="0" />
	<path
   id="path26"
   d="m 433.828,213.974 c -15.099,0.045 -29.589,-5.951 -40.241,-16.651 -7.236,-7.133 -12.371,-16.119 -14.845,-25.974 -0.086,-0.35 -0.13,-0.709 -0.129,-1.069 v -26.397 c -0.002,-0.365 0.045,-0.729 0.138,-1.082 7.411,-28.629 35.514,-46.812 64.665,-41.839 29.152,4.973 49.637,31.444 47.137,60.911 -2.501,29.468 -27.153,52.11 -56.725,52.101 z m -46.388,-44.25 c 2.133,8.095 6.406,15.466 12.371,21.341 18.785,18.769 49.222,18.777 68.017,0.018 v 0 c 14.28,-14.275 18.121,-35.951 9.615,-54.263 -8.506,-18.312 -27.548,-29.359 -47.667,-27.655 -20.12,1.705 -37.031,15.798 -42.335,35.28 z"
   style="fill:#2c3e50"
   inkscape:connector-curvature="0" />
	<path
   id="path28"
   d="m 311.298,170.216 71.714,0.09 44.643,-0.09 c 4.71,0.012 9.066,-2.493 11.425,-6.57 2.358,-4.077 2.358,-9.103 0,-13.179 -2.358,-4.077 -6.715,-6.582 -11.425,-6.57 l -71.949,0.09 h -53.659 z"
   style="fill:#95a5a5"
   inkscape:connector-curvature="0" />
	<path
   id="path30"
   d="m 217.506,488.335 c 27.841,-15.545 43.577,-46.33 39.87,-78 -3.707,-31.67 -26.127,-57.989 -56.805,-66.684 -30.678,-8.695 -63.574,1.947 -83.347,26.963 -19.773,25.016 -22.53,59.479 -6.985,87.32 21.271,37.958 69.242,51.554 107.267,30.401 z m -83.875,-42.413 c -14.132,-25.306 -5.098,-57.275 20.187,-71.443 8.131,-4.639 17.384,-6.944 26.741,-6.662 l 25.4,7.177 c 8.094,4.691 14.764,11.49 19.301,19.672 9.156,16.368 8.884,36.377 -0.713,52.491 -9.597,16.114 -27.062,25.883 -45.815,25.628 -18.752,-0.256 -35.945,-10.496 -45.101,-26.863 z"
   style="fill:#35495e"
   inkscape:connector-curvature="0" />
	<path
   id="path32"
   d="m 179.009,475.995 c -30.635,0.039 -55.8,-24.186 -56.929,-54.8 -1.129,-30.614 22.185,-56.625 52.739,-58.843 1.572,-0.114 3.086,0.62 3.971,1.924 0.885,1.305 1.006,2.982 0.319,4.401 -0.687,1.419 -2.079,2.363 -3.652,2.477 -25.798,1.897 -45.47,23.869 -44.513,49.719 0.956,25.85 22.197,46.309 48.065,46.294 h 0.009 c 19.345,0.005 36.813,-11.575 44.34,-29.396 7.527,-17.821 3.651,-38.416 -9.84,-52.281 -1.101,-1.127 -1.517,-2.756 -1.091,-4.273 0.426,-1.517 1.628,-2.692 3.155,-3.082 1.527,-0.39 3.146,0.064 4.247,1.191 15.973,16.404 20.567,40.779 11.662,61.872 -8.905,21.093 -29.577,34.801 -52.472,34.796 h -0.01 z"
   style="fill:#2c3e50"
   inkscape:connector-curvature="0" />
	<path
   id="path34"
   d="M 404.657,267.736 292.722,379.67 c -4.423,4.395 -10.752,6.284 -16.86,5.032 l -22.776,-4.59 -18.537,-3.796 c -8.866,-1.835 -17.768,2.969 -21.099,11.388 l -15.006,37.782 c -3.166,8.092 -11.709,12.718 -20.215,10.946 h -0.177 c -4.82,-0.974 -9.038,-3.866 -11.684,-8.01 -2.647,-4.145 -3.495,-9.188 -2.35,-13.97 L 192.355,293.426 123.322,326.176 39.901,352.57 0,339.151 68.767,282.919 c 2.497,-2.037 5.869,-2.638 8.916,-1.589 l 11.123,3.708 c 1.853,0.647 3.865,0.678 5.737,0.088 l 87.041,-49.258 3.884,-2.207 -3.178,-3.178 c -17.101,-17.012 -18.55,-44.207 -3.354,-62.941 l 3.53,-4.414 c 19.19,-23.485 43.178,-42.597 70.357,-56.055 l 6.973,-3.531 57.821,-28.69 C 312.223,61.476 301.314,51.081 287.692,46.339 280.513,43.883 273.127,42.08 265.623,40.954 l -36.989,-5.738 27.189,-10.858 c 34.546,-13.874 73.04,-14.284 107.873,-1.148 l 25.6,9.622 c 3.658,1.386 6.427,4.445 7.441,8.223 1.014,3.778 0.151,7.813 -2.321,10.844 -5.295,6.268 -16.506,20.657 -28.954,36.546 -28.232,36.256 -25.171,87.833 7.15,120.497 l 32.045,32.309 c 3.517,3.509 5.494,8.273 5.494,13.241 0,4.971 -1.976,9.735 -5.494,13.244 z"
   style="fill:#0b8c36"
   inkscape:connector-curvature="0" />
	<path
   id="path36"
   d="m 247.526,324.674 c -0.263,1.007 -0.353,2.052 -0.265,3.09 l 5.825,52.259 v 0.088 l -18.537,-3.796 c -8.866,-1.835 -17.768,2.969 -21.099,11.388 l -15.006,37.782 c -3.166,8.092 -11.709,12.718 -20.215,10.946 h -0.177 c -4.82,-0.974 -9.038,-3.866 -11.684,-8.01 -2.647,-4.145 -3.495,-9.188 -2.35,-13.97 L 192.355,293.425 123.322,326.175 39.901,352.569 0,339.151 68.767,282.919 c 2.497,-2.037 5.869,-2.638 8.916,-1.589 l 11.123,3.708 c 1.853,0.647 3.865,0.678 5.737,0.088 l 87.041,-49.258 3.884,-2.207 39.901,-25.335 c 5.527,-3.482 10.348,-7.975 14.212,-13.241 l 1.412,1.059 -5.386,58.615 c -0.207,2.448 0.62,4.871 2.28,6.682 1.66,1.811 4.002,2.845 6.459,2.852 h 6.092 c 2.376,0.011 4.647,0.984 6.294,2.697 1.647,1.713 2.529,4.021 2.446,6.396 l -0.176,5.297 -8.475,33.81 z"
   style="fill:#2c3e50"
   inkscape:connector-curvature="0" />
	<path
   id="path38"
   d="m 183.703,251.935 c 0.908,7.408 -2.946,14.585 -9.623,17.92 l -51.818,25.953 c -6.743,3.35 -14.87,2.037 -20.214,-3.266 l -7.504,-7.415 c 0.648,-0.189 1.27,-0.456 1.854,-0.794 l 85.188,-48.463 z"
   style="fill:#0b8c36"
   inkscape:connector-curvature="0" />
	<circle
   id="circle40"
   r="17.514"
   cy="295.23401"
   cx="253.34"
   style="fill:#35495e" />
	<g
   id="g50">
		<path
   id="path42"
   d="m 290.483,311.238 -0.006,33.518 65.015,-65.015 c 1.949,-1.949 2.867,-4.701 2.478,-7.429 l -3.702,-25.948 c -0.414,-2.904 -2.256,-5.407 -4.904,-6.667 -2.648,-1.26 -5.752,-1.11 -8.267,0.4 l -15.398,9.241 c -2.637,1.583 -4.251,4.433 -4.252,7.508 l -0.003,16.18 c 0,2.322 -0.923,4.549 -2.565,6.191 l -25.83,25.83 c -1.643,1.642 -2.566,3.869 -2.566,6.191 z"
   style="fill:#0b8c36"
   inkscape:connector-curvature="0" />
		<path
   id="path44"
   d="m 278.121,188.211 c -1.785,0 -3.394,-1.076 -4.077,-2.725 -0.683,-1.649 -0.306,-3.547 0.957,-4.81 l 24.767,-24.767 c 1.111,-1.134 2.745,-1.583 4.28,-1.178 1.535,0.406 2.733,1.604 3.139,3.139 0.406,1.535 -0.044,3.169 -1.178,4.28 l -24.767,24.767 c -0.828,0.83 -1.951,1.295 -3.121,1.294 z"
   style="fill:#0b8c36"
   inkscape:connector-curvature="0" />
		<path
   id="path46"
   d="m 315.276,151.06 c -1.785,0 -3.394,-1.076 -4.077,-2.725 -0.683,-1.649 -0.306,-3.547 0.956,-4.81 l 6.19,-6.194 c 1.111,-1.134 2.745,-1.583 4.28,-1.178 1.535,0.406 2.733,1.604 3.139,3.139 0.406,1.535 -0.044,3.169 -1.178,4.28 l -6.19,6.194 c -0.826,0.83 -1.949,1.295 -3.12,1.294 z"
   style="fill:#0b8c36"
   inkscape:connector-curvature="0" />
		<path
   id="path48"
   d="m 397.153,44.133 c 0.011,2.828 -0.956,5.572 -2.737,7.768 -3.619,4.326 -10.063,12.359 -17.744,22.157 l -10.151,-10.24 c -6.19,-6.136 -7.153,-15.803 -2.295,-23.04 l 9.092,-13.506 0.177,-0.353 15.801,5.914 c 4.709,1.774 7.834,6.269 7.857,11.3 z"
   style="fill:#0b8c36"
   inkscape:connector-curvature="0" />
	</g>
	<path
   id="path52"
   d="m 90.659,285.479 -14.742,22.069 c -5.369,8.129 -13.335,14.197 -22.599,17.214 L 5.825,341.093 0,339.151 68.767,282.919 c 2.497,-2.037 5.869,-2.638 8.916,-1.589 l 11.123,3.708 c 0.607,0.189 1.226,0.336 1.853,0.441 z"
   style="fill:#0b8c36"
   inkscape:connector-curvature="0" />
	<path
   id="path54"
   d="M 326.444,95.333 281.6,127.377 c -0.265,-1.589 -15.813,5.003 -17.048,3.768 l -4.756,-27.602 57.821,-28.69 c -0.177,-0.441 -0.353,-0.883 -0.53,-1.236 l 9.446,6.797 c 2.381,1.746 3.781,4.529 3.763,7.482 -0.017,2.954 -1.45,5.719 -3.852,7.437 z"
   style="fill:#35495e"
   inkscape:connector-curvature="0" />
	<path
   id="path56"
   d="m 280.364,134.086 -39.371,59.057 c -0.421,0.682 -0.893,1.332 -1.412,1.942 -3.864,5.267 -8.686,9.759 -14.212,13.241 l -39.901,25.335 -3.178,-3.178 c -17.101,-17.012 -18.551,-44.207 -3.354,-62.941 l 3.53,-4.414 c 19.19,-23.485 43.178,-42.597 70.357,-56.055 l 6.973,-3.531 19.421,19.421 c 2.981,2.962 3.461,7.615 1.147,11.123 z"
   style="fill:#0b8c36"
   inkscape:connector-curvature="0" />
</g></g>
<g
   id="g60"
   transform="translate(-2.296075,-64.735786)">
</g>
<g
   id="g62"
   transform="translate(-2.296075,-64.735786)">
</g>
<g
   id="g64"
   transform="translate(-2.296075,-64.735786)">
</g>
<g
   id="g66"
   transform="translate(-2.296075,-64.735786)">
</g>
<g
   id="g68"
   transform="translate(-2.296075,-64.735786)">
</g>
<g
   id="g70"
   transform="translate(-2.296075,-64.735786)">
</g>
<g
   id="g72"
   transform="translate(-2.296075,-64.735786)">
</g>
<g
   id="g74"
   transform="translate(-2.296075,-64.735786)">
</g>
<g
   id="g76"
   transform="translate(-2.296075,-64.735786)">
</g>
<g
   id="g78"
   transform="translate(-2.296075,-64.735786)">
</g>
<g
   id="g80"
   transform="translate(-2.296075,-64.735786)">
</g>
<g
   id="g82"
   transform="translate(-2.296075,-64.735786)">
</g>
<g
   id="g84"
   transform="translate(-2.296075,-64.735786)">
</g>
<g
   id="g86"
   transform="translate(-2.296075,-64.735786)">
</g>
<g
   id="g88"
   transform="translate(-2.296075,-64.735786)">
</g>
</svg>